<svg width="123" height="129" viewBox="0 0 123 129" fill="none" xmlns="http://www.w3.org/2000/svg">
<g clip-path="url(#clip0_43_7)">
<path d="M1.72501 126.4C-0.575003 124.1 -0.575003 14.5667 1.72501 12.2667C2.65573 11.3359 7.1176 10.6667 12.3917 10.6667C21.4329 10.6667 21.4583 10.6562 21.4583 6.93333C21.4583 1.93344 23.6892 0 29.4583 0C35.2274 0 37.4583 1.93344 37.4583 6.93333V10.6667H61.4583H85.4583V6.93333C85.4583 1.93344 87.6892 0 93.4583 0C99.2274 0 101.458 1.93344 101.458 6.93333C101.458 10.6562 101.484 10.6667 110.525 10.6667C115.799 10.6667 120.261 11.3359 121.192 12.2667C123.492 14.5667 123.492 124.1 121.192 126.4C118.89 128.702 4.02667 128.702 1.72501 126.4ZM117.458 81.3333V40H61.4583H5.45834V81.3333V122.667H61.4583H117.458V81.3333ZM21.4583 81.3333V50.6667H61.4583H101.458V81.3333V112H61.4583H21.4583V81.3333ZM40.125 100V93.3333H33.4583H26.7917V100V106.667H33.4583H40.125V100ZM58.7917 100V93.3333H52.125H45.4583V100V106.667H52.125H58.7917V100ZM77.4583 100V93.3333H70.7917H64.125V100V106.667H70.7917H77.4583V100ZM96.125 100V93.3333H89.4583H82.7917V100V106.667H89.4583H96.125V100ZM40.125 81.3333V74.6667H33.4583H26.7917V81.3333V88H33.4583H40.125V81.3333ZM58.7917 81.3333V74.6667H52.125H45.4583V81.3333V88H52.125H58.7917V81.3333ZM77.4583 81.3333V74.6667H70.7917H64.125V81.3333V88H70.7917H77.4583V81.3333ZM96.125 81.3333V74.6667H89.4583H82.7917V81.3333V88H89.4583H96.125V81.3333ZM40.125 62.6667V56H33.4583H26.7917V62.6667V69.3333H33.4583H40.125V62.6667ZM58.7917 62.6667V56H52.125H45.4583V62.6667V69.3333H52.125H58.7917V62.6667ZM77.4583 62.6667V56H70.7917H64.125V62.6667V69.3333H70.7917H77.4583V62.6667ZM96.125 62.6667V56H89.4583H82.7917V62.6667V69.3333H89.4583H96.125V62.6667ZM117.458 25.3333V16H109.458C101.585 16 101.458 16.0593 101.458 19.7333C101.458 24.7332 99.2274 26.6667 93.4583 26.6667C87.6892 26.6667 85.4583 24.7332 85.4583 19.7333V16H61.4583H37.4583V19.7333C37.4583 24.7332 35.2274 26.6667 29.4583 26.6667C23.6892 26.6667 21.4583 24.7332 21.4583 19.7333C21.4583 16.0593 21.3314 16 13.4583 16H5.45834V25.3333V34.6667H61.4583H117.458V25.3333ZM32.125 13.3333C32.125 6.22222 31.8287 5.33333 29.4583 5.33333C27.088 5.33333 26.7917 6.22222 26.7917 13.3333C26.7917 20.4444 27.088 21.3333 29.4583 21.3333C31.8287 21.3333 32.125 20.4444 32.125 13.3333ZM96.125 13.3333C96.125 6.22222 95.8287 5.33333 93.4583 5.33333C91.088 5.33333 90.7917 6.22222 90.7917 13.3333C90.7917 20.4444 91.088 21.3333 93.4583 21.3333C95.8287 21.3333 96.125 20.4444 96.125 13.3333Z" fill="white"/>
</g>
<defs>
<clipPath id="clip0_43_7">
<rect width="122.917" height="128.126" fill="white"/>
</clipPath>
</defs>
</svg>
