<svg width="123" height="123" viewBox="0 0 123 123" fill="none" xmlns="http://www.w3.org/2000/svg">
<g clip-path="url(#clip0_43_10)">
<path d="M47.0552 120.919C35.8 118.185 27.5299 113.369 18.3426 104.198C8.1398 94.0137 3.20553 84.604 0.84287 70.826C-0.892209 60.7078 -0.0498352 57.1949 4.31746 56.3359C8.21065 55.5701 10.0368 58.5191 10.9236 67.0042C12.6941 83.9434 23.6513 99.2682 39.6091 107.124C47.6551 111.085 49.4472 111.445 61.0825 111.432C72.0287 111.42 74.8273 110.928 81.4013 107.859C92.0358 102.894 101.58 93.5288 106.789 82.9473C110.75 74.9014 111.109 73.1092 111.097 61.474C111.085 50.5278 110.593 47.7292 107.523 41.1552C102.558 30.5206 93.1934 20.9769 82.6119 15.7677C74.5523 11.7999 72.7934 11.4486 61.1385 11.4785C47.7259 11.5129 41.024 13.5218 31.3852 20.3969L27.1105 23.446L33.6418 24.1126C41.0428 24.8681 44.1195 27.8217 41.6278 31.7793C40.383 33.7563 37.6798 34.1698 23.9266 34.4873L7.69442 34.862L8.06913 18.6299C8.38661 4.87669 8.80017 2.17342 10.7772 0.928687C15.072 -1.77539 17.7291 1.47898 18.1794 9.99497L18.5815 17.6013L23.0408 13.686C34.4789 3.64326 54.3667 -1.58661 70.5593 1.19011C84.2576 3.53913 93.6904 8.49 103.878 18.678C114.066 28.8661 119.017 38.2988 121.366 51.9972C124.674 71.2873 118.566 89.5266 103.878 104.214C88.074 120.018 67.8361 125.968 47.0552 120.919Z" fill="white"/>
</g>
<defs>
<clipPath id="clip0_43_10">
<rect width="122.242" height="122.672" fill="white"/>
</clipPath>
</defs>
</svg>
