<svg width="121" height="124" viewBox="0 0 121 124" fill="none" xmlns="http://www.w3.org/2000/svg">
<g clip-path="url(#clip0_39_3)" filter="url(#filter0_d_39_3)">
<path d="M89.2499 99.2635L73.2234 83.237L66.6117 86.2376C56.4019 90.871 39.9058 90.5966 29.7818 85.6249C20.1755 80.9075 12.4258 73.1578 7.70841 63.5515C4.53589 57.0912 4 54.3623 4 44.6667C4 34.9711 4.53589 32.2421 7.70841 25.7818C9.74803 21.6284 13.8498 15.7972 16.8235 12.8235C19.7972 9.84984 25.6284 5.74803 29.7818 3.70841C36.2421 0.535887 38.9711 0 48.6667 0C58.3623 0 61.0912 0.535887 67.5515 3.70841C77.1578 8.42584 84.9075 16.1755 89.6249 25.7818C92.8047 32.2569 93.3333 34.9622 93.3333 44.7609C93.3333 54.966 92.8895 57.0343 89.1852 64.0943L85.0371 72L100.87 88.0377L116.703 104.075L110.99 109.683L105.276 115.29L89.2499 99.2635ZM64.0392 75.6273C70.241 72.4328 76.6993 65.9042 80.1576 59.3333C83.5615 52.8659 83.5615 36.4674 80.1576 30C76.7311 23.4896 70.2908 16.945 64 13.5807C59.9115 11.3942 56.3326 10.7285 48.6667 10.7285C37.305 10.7285 30.9043 13.344 23.8159 20.8832C16.675 28.4783 14.7196 33.5909 14.7196 44.6667C14.7196 55.7433 16.6762 60.8586 23.8159 68.4471C28.0328 72.929 33.1674 76.1472 39.3247 78.1675C44.8241 79.9719 58.292 78.5877 64.0392 75.6273Z" fill="white"/>
</g>
<defs>
<filter id="filter0_d_39_3" x="0" y="0" width="120.703" height="123.29" filterUnits="userSpaceOnUse" color-interpolation-filters="sRGB">
<feFlood flood-opacity="0" result="BackgroundImageFix"/>
<feColorMatrix in="SourceAlpha" type="matrix" values="0 0 0 0 0 0 0 0 0 0 0 0 0 0 0 0 0 0 127 0" result="hardAlpha"/>
<feOffset dy="4"/>
<feGaussianBlur stdDeviation="2"/>
<feComposite in2="hardAlpha" operator="out"/>
<feColorMatrix type="matrix" values="0 0 0 0 0 0 0 0 0 0 0 0 0 0 0 0 0 0 0.25 0"/>
<feBlend mode="normal" in2="BackgroundImageFix" result="effect1_dropShadow_39_3"/>
<feBlend mode="normal" in="SourceGraphic" in2="effect1_dropShadow_39_3" result="shape"/>
</filter>
<clipPath id="clip0_39_3">
<rect width="112.703" height="115.29" fill="white" transform="translate(4)"/>
</clipPath>
</defs>
</svg>
